<?xml version="1.0" encoding="utf-8"?>
<!-- Generator: Adobe Illustrator 19.0.0, SVG Export Plug-In . SVG Version: 6.00 Build 0)  -->
<svg version="1.1" id="Layer_1" xmlns="http://www.w3.org/2000/svg" xmlns:xlink="http://www.w3.org/1999/xlink" x="0px" y="0px"
	 viewBox="0 0 1000 574" style="enable-background:new 0 0 1000 574;" xml:space="preserve">
<style type="text/css">
	.st0{fill:none;stroke:#41BEAD;stroke-width:5;stroke-miterlimit:10;}
	.st1{fill:#41BEAD;}
	.st2{fill:#F16375;}
	.st3{fill:#686868;}
	.st4{font-family:'LucidaSansUnicode';}
	.st5{font-size:38.8995px;}
	.st6{fill:#8A9296;stroke:#8A9296;stroke-width:2;stroke-linecap:round;stroke-linejoin:round;stroke-miterlimit:10;}
</style>
<path id="XMLID_14_" class="st0" d="M174.7,331.1c0,7.2-2.9,13.7-7.7,18.5c-4.7,4.7-11.3,7.7-18.5,7.7h-22.4v22.4
	c0,14.4-11.8,26.2-26.2,26.2s-26.2-11.8-26.2-26.2v-22.4H51.3c-14.4,0-26.2-11.8-26.2-26.2s11.8-26.2,26.2-26.2h22.4v-22.4
	c0-14.4,11.8-26.2,26.2-26.2c7.2,0,13.7,2.9,18.5,7.7c4.7,4.7,7.7,11.3,7.7,18.5v22.4h22.4C162.9,304.9,174.7,316.7,174.7,331.1z"/>
<path id="XMLID_1_" class="st0" d="M208.3,304.9v-22.4c0-14.4,11.8-26.2,26.2-26.2c7.2,0,13.7,2.9,18.5,7.7
	c4.7,4.7,7.7,11.3,7.7,18.5v22.4h22.4c14.4,0,26.2,11.8,26.2,26.2c0,7.2-2.9,13.7-7.7,18.5c-4.7,4.7-11.3,7.7-18.5,7.7h-22.4"/>
<path id="XMLID_2_" class="st0" d="M354.4,304.9v-22.4c0-14.4,11.8-26.2,26.2-26.2c7.2,0,13.7,2.9,18.5,7.7
	c4.7,4.7,7.7,11.3,7.7,18.5v22.4h22.4c14.4,0,26.2,11.8,26.2,26.2c0,7.2-2.9,13.7-7.7,18.5c-4.7,4.7-11.3,7.7-18.5,7.7h-22.4h-52.4
	V304.9z"/>
<path id="XMLID_4_" class="st1" d="M514,341.2l-15.9-15.9c-10.2-10.2-10.2-26.8,0-37c5.1-5.1,11.8-7.6,18.5-7.6
	c6.7,0,13.4,2.5,18.5,7.6l15.9,15.9l15.9-15.9c10.2-10.2,26.8-10.2,37,0c5.1,5.1,7.6,11.8,7.6,18.5c0,6.7-2.5,13.4-7.6,18.5
	L588,341.2l-37,37L514,341.2z"/>
<path id="XMLID_12_" class="st2" d="M877.4,341.2l-15.9-15.9c-10.2-10.2-10.2-26.8,0-37c5.1-5.1,11.8-7.6,18.5-7.6
	c6.7,0,13.4,2.5,18.5,7.6l15.9,15.9l15.9-15.9c10.2-10.2,26.8-10.2,37,0c5.1,5.1,7.6,11.8,7.6,18.5c0,6.7-2.5,13.4-7.6,18.5
	l-15.9,15.9l-37,37L877.4,341.2z"/>
<path id="XMLID_11_" class="st2" d="M824.9,296.4c0,10.3-3.9,20.6-11.7,28.4l-81.1,81.1l-81.1-81.1c-15.6-15.6-15.6-41.2,0-56.8
	c7.8-7.8,18.1-11.7,28.4-11.7c10.3,0,20.6,3.9,28.4,11.7l24.3,24.3l24.3-24.3c15.6-15.6,41.2-15.6,56.8,0
	C821,275.8,824.9,286.1,824.9,296.4z"/>
<text id="XMLID_3_" transform="matrix(1 0 0 1 87.8536 459.2964)" class="st3 st4 st5">1</text>
<text id="XMLID_6_" transform="matrix(1 0 0 1 234.4741 459.2964)" class="st3 st4 st5">2</text>
<text id="XMLID_7_" transform="matrix(1 0 0 1 386.0828 459.2964)" class="st3 st4 st5">3</text>
<text id="XMLID_8_" transform="matrix(1 0 0 1 534.6981 459.2964)" class="st3 st4 st5">4</text>
<text id="XMLID_9_" transform="matrix(1 0 0 1 717.2264 459.2975)" class="st3 st4 st5">5</text>
<text id="XMLID_10_" transform="matrix(1 0 0 1 901.0828 459.2975)" class="st3 st4 st5">6</text>
<path id="XMLID_5_" class="st3" d="M908.1,483.7H108.9c-0.6,0-1-0.4-1-1v-1c0-0.6,0.4-1,1-1h799.2c0.6,0,1,0.4,1,1v1
	C909.1,483.3,908.6,483.7,908.1,483.7z"/>
<path id="XMLID_15_" class="st3" d="M929,488.7H715.7c-0.6,0-1-0.4-1-1v-1c0-0.6,0.4-1,1-1H929c0.6,0,1,0.4,1,1v1
	C930,488.3,929.6,488.7,929,488.7z"/>
<path id="XMLID_16_" class="st3" d="M306.8,479.2H93.5c-0.6,0-1-0.4-1-1v-1c0-0.6,0.4-1,1-1h213.3c0.6,0,1,0.4,1,1v1
	C307.8,478.8,307.3,479.2,306.8,479.2z"/>
<g id="XMLID_64_">
	<path id="XMLID_65_" class="st6" d="M352,102.5h-9.5v25.2h-2v-25.2h-9.4v-2H352V102.5z"/>
	<path id="XMLID_67_" class="st6" d="M375,127.8h-2v-27.2h2V127.8z"/>
	<path id="XMLID_69_" class="st6" d="M423.4,127.8h-2v-23.9l-9.8,23.9h-2.1l-9.8-23.9v23.9h-2v-27.2h2.9l9.9,24.7l10-24.7h2.8V127.8
		z"/>
	<path id="XMLID_71_" class="st6" d="M465.3,127.8h-19.6v-27.2h19v2h-17v10.1h15.9v2h-15.9v11.2h17.7V127.8z"/>
	<path id="XMLID_73_" class="st6" d="M502.7,127.8h-16v-27.2h2v25.2h14V127.8z"/>
	<path id="XMLID_75_" class="st6" d="M526.2,127.8h-2v-27.2h2V127.8z"/>
	<path id="XMLID_77_" class="st6" d="M570.3,127.8h-2.6l-16.6-24.8v24.8h-2v-27.2h2.7l16.5,24.8v-24.8h2V127.8z"/>
	<path id="XMLID_79_" class="st6" d="M612.1,127.8h-19.6v-27.2h19v2h-17v10.1h15.9v2h-15.9v11.2h17.7V127.8z"/>
</g>
<g id="XMLID_47_">
	<path id="XMLID_48_" class="st6" d="M352,102.5h-9.5v25.2h-2v-25.2h-9.4v-2H352V102.5z"/>
	<path id="XMLID_50_" class="st6" d="M375,127.8h-2v-27.2h2V127.8z"/>
	<path id="XMLID_52_" class="st6" d="M423.4,127.8h-2v-23.9l-9.8,23.9h-2.1l-9.8-23.9v23.9h-2v-27.2h2.9l9.9,24.7l10-24.7h2.8V127.8
		z"/>
	<path id="XMLID_54_" class="st6" d="M465.3,127.8h-19.6v-27.2h19v2h-17v10.1h15.9v2h-15.9v11.2h17.7V127.8z"/>
	<path id="XMLID_56_" class="st6" d="M502.7,127.8h-16v-27.2h2v25.2h14V127.8z"/>
	<path id="XMLID_58_" class="st6" d="M526.2,127.8h-2v-27.2h2V127.8z"/>
	<path id="XMLID_60_" class="st6" d="M570.3,127.8h-2.6l-16.6-24.8v24.8h-2v-27.2h2.7l16.5,24.8v-24.8h2V127.8z"/>
	<path id="XMLID_62_" class="st6" d="M612.1,127.8h-19.6v-27.2h19v2h-17v10.1h15.9v2h-15.9v11.2h17.7V127.8z"/>
</g>
<g id="XMLID_13_">
	<path id="XMLID_31_" class="st6" d="M352,102.5h-9.5v25.2h-2v-25.2h-9.4v-2H352V102.5z"/>
	<path id="XMLID_33_" class="st6" d="M375,127.8h-2v-27.2h2V127.8z"/>
	<path id="XMLID_35_" class="st6" d="M423.4,127.8h-2v-23.9l-9.8,23.9h-2.1l-9.8-23.9v23.9h-2v-27.2h2.9l9.9,24.7l10-24.7h2.8V127.8
		z"/>
	<path id="XMLID_37_" class="st6" d="M465.3,127.8h-19.6v-27.2h19v2h-17v10.1h15.9v2h-15.9v11.2h17.7V127.8z"/>
	<path id="XMLID_39_" class="st6" d="M502.7,127.8h-16v-27.2h2v25.2h14V127.8z"/>
	<path id="XMLID_41_" class="st6" d="M526.2,127.8h-2v-27.2h2V127.8z"/>
	<path id="XMLID_43_" class="st6" d="M570.3,127.8h-2.6l-16.6-24.8v24.8h-2v-27.2h2.7l16.5,24.8v-24.8h2V127.8z"/>
	<path id="XMLID_45_" class="st6" d="M612.1,127.8h-19.6v-27.2h19v2h-17v10.1h15.9v2h-15.9v11.2h17.7V127.8z"/>
</g>
</svg>
