<?xml version="1.0" encoding="utf-8"?>
<!-- Generator: Adobe Illustrator 19.0.0, SVG Export Plug-In . SVG Version: 6.00 Build 0)  -->
<svg version="1.1" xmlns="http://www.w3.org/2000/svg" xmlns:xlink="http://www.w3.org/1999/xlink" x="0px" y="0px"
	 viewBox="0 0 1000 1000" style="enable-background:new 0 0 1000 1000;" xml:space="preserve">
<style type="text/css">
	.st0{fill:#F5F5F5;}
	.st1{fill:none;stroke:#42BDA0;stroke-width:48;stroke-linecap:round;stroke-linejoin:round;stroke-miterlimit:10;}
	.st2{fill:none;stroke:#F16375;stroke-width:4;stroke-linecap:round;stroke-linejoin:round;stroke-miterlimit:10;}
	.st3{fill:none;stroke:#F16375;stroke-width:48;stroke-linecap:round;stroke-linejoin:round;stroke-miterlimit:10;}
</style>
<g id="Layer_2">
	<rect id="XMLID_5_" class="st0" width="1000" height="1000"/>
</g>
<g id="Layer_1">
	<polyline id="XMLID_4_" class="st1" points="96.4,464.1 211.4,346.2 373.2,599.2 418,464.1 515.3,576.8 555.7,528.6 603.9,564.8 
		693.4,354.8 762.3,452.9 970.8,432.3 	"/>
	<polyline id="XMLID_1_" class="st2" points="96.4,464.1 211.4,346.2 373.2,599.2 418,464.1 515.3,576.8 555.7,528.6 603.9,564.8 
		693.4,354.8 762.3,452.9 970.8,432.3 	"/>
	<path id="XMLID_2_" class="st3" d="M970.8,432.3c-7.5,11.2-450.2,455.9-450.2,455.9L237,604.7"/>
	<path id="XMLID_3_" class="st3" d="M944.7,167.2c-81.7-81.6-215.3-81.6-296.9,0L520.6,294.5L393.3,167.2
		c-40.8-40.8-94.7-61.2-148.4-61.2c-53.8,0-107.7,20.4-148.5,61.2c-81.5,81.7-81.5,215.3,0,296.9"/>
</g>
</svg>
